<mxfile host="Electron" agent="Mozilla/5.0 (X11; Linux x86_64) AppleWebKit/537.36 (KHTML, like Gecko) draw.io/26.2.15 Chrome/134.0.6998.205 Electron/35.2.1 Safari/537.36" version="26.2.15">
  <diagram name="Page-1" id="7SyjE8UV8Fz2so0-sMqT">
    <mxGraphModel dx="2354" dy="835" grid="1" gridSize="10" guides="1" tooltips="1" connect="1" arrows="1" fold="1" page="1" pageScale="1" pageWidth="850" pageHeight="1100" math="0" shadow="0">
      <root>
        <mxCell id="0" />
        <mxCell id="1" parent="0" />
        <mxCell id="nrMlRZg6xzGpJpdYMb1K-27" style="edgeStyle=orthogonalEdgeStyle;rounded=0;orthogonalLoop=1;jettySize=auto;html=1;exitX=0.5;exitY=1;exitDx=0;exitDy=0;entryX=0.5;entryY=0;entryDx=0;entryDy=0;strokeWidth=3;endArrow=none;startFill=0;" edge="1" parent="1" source="nrMlRZg6xzGpJpdYMb1K-7" target="nrMlRZg6xzGpJpdYMb1K-26">
          <mxGeometry relative="1" as="geometry" />
        </mxCell>
        <mxCell id="nrMlRZg6xzGpJpdYMb1K-20" value="" style="endArrow=none;html=1;rounded=0;strokeWidth=3;exitX=0.5;exitY=0;exitDx=0;exitDy=0;" edge="1" parent="1" source="nrMlRZg6xzGpJpdYMb1K-10">
          <mxGeometry width="50" height="50" relative="1" as="geometry">
            <mxPoint x="-130" y="810" as="sourcePoint" />
            <mxPoint x="-130" y="260" as="targetPoint" />
          </mxGeometry>
        </mxCell>
        <mxCell id="nrMlRZg6xzGpJpdYMb1K-21" style="edgeStyle=orthogonalEdgeStyle;rounded=0;orthogonalLoop=1;jettySize=auto;html=1;exitX=0.5;exitY=1;exitDx=0;exitDy=0;entryX=0.5;entryY=0;entryDx=0;entryDy=0;strokeWidth=3;endArrow=none;startFill=0;" edge="1" parent="1" source="nrMlRZg6xzGpJpdYMb1K-2" target="nrMlRZg6xzGpJpdYMb1K-11">
          <mxGeometry relative="1" as="geometry" />
        </mxCell>
        <mxCell id="nrMlRZg6xzGpJpdYMb1K-22" style="edgeStyle=orthogonalEdgeStyle;rounded=0;orthogonalLoop=1;jettySize=auto;html=1;exitX=0.5;exitY=1;exitDx=0;exitDy=0;endArrow=none;startFill=0;strokeWidth=3;" edge="1" parent="1" source="nrMlRZg6xzGpJpdYMb1K-3" target="nrMlRZg6xzGpJpdYMb1K-12">
          <mxGeometry relative="1" as="geometry" />
        </mxCell>
        <mxCell id="nrMlRZg6xzGpJpdYMb1K-23" style="edgeStyle=orthogonalEdgeStyle;rounded=0;orthogonalLoop=1;jettySize=auto;html=1;exitX=0.5;exitY=1;exitDx=0;exitDy=0;endArrow=none;startFill=0;strokeWidth=3;" edge="1" parent="1" source="nrMlRZg6xzGpJpdYMb1K-4" target="nrMlRZg6xzGpJpdYMb1K-13">
          <mxGeometry relative="1" as="geometry" />
        </mxCell>
        <mxCell id="nrMlRZg6xzGpJpdYMb1K-24" style="edgeStyle=orthogonalEdgeStyle;rounded=0;orthogonalLoop=1;jettySize=auto;html=1;exitX=0.5;exitY=1;exitDx=0;exitDy=0;strokeWidth=3;endArrow=none;startFill=0;" edge="1" parent="1" source="nrMlRZg6xzGpJpdYMb1K-5" target="nrMlRZg6xzGpJpdYMb1K-14">
          <mxGeometry relative="1" as="geometry" />
        </mxCell>
        <mxCell id="nrMlRZg6xzGpJpdYMb1K-25" style="edgeStyle=orthogonalEdgeStyle;rounded=0;orthogonalLoop=1;jettySize=auto;html=1;exitX=0.5;exitY=1;exitDx=0;exitDy=0;entryX=0.5;entryY=0;entryDx=0;entryDy=0;endArrow=none;startFill=0;strokeWidth=3;" edge="1" parent="1" source="nrMlRZg6xzGpJpdYMb1K-6" target="nrMlRZg6xzGpJpdYMb1K-15">
          <mxGeometry relative="1" as="geometry" />
        </mxCell>
        <mxCell id="nrMlRZg6xzGpJpdYMb1K-29" value="" style="shape=flexArrow;endArrow=classic;html=1;rounded=0;fillColor=light-dark(#080808, #ededed);" edge="1" parent="1">
          <mxGeometry width="50" height="50" relative="1" as="geometry">
            <mxPoint x="-130" y="340" as="sourcePoint" />
            <mxPoint x="90" y="340" as="targetPoint" />
          </mxGeometry>
        </mxCell>
        <mxCell id="nrMlRZg6xzGpJpdYMb1K-31" value="" style="shape=flexArrow;endArrow=classic;html=1;rounded=0;fillColor=light-dark(#080808, #ededed);" edge="1" parent="1">
          <mxGeometry width="50" height="50" relative="1" as="geometry">
            <mxPoint x="90" y="390" as="sourcePoint" />
            <mxPoint x="310" y="390" as="targetPoint" />
          </mxGeometry>
        </mxCell>
        <mxCell id="nrMlRZg6xzGpJpdYMb1K-34" value="" style="shape=flexArrow;endArrow=classic;html=1;rounded=0;fillColor=light-dark(#080808, #ededed);" edge="1" parent="1">
          <mxGeometry width="50" height="50" relative="1" as="geometry">
            <mxPoint x="308" y="474.41" as="sourcePoint" />
            <mxPoint x="88" y="474.41" as="targetPoint" />
          </mxGeometry>
        </mxCell>
        <mxCell id="nrMlRZg6xzGpJpdYMb1K-36" value="" style="shape=flexArrow;endArrow=classic;html=1;rounded=0;fillColor=light-dark(#080808, #ededed);" edge="1" parent="1">
          <mxGeometry width="50" height="50" relative="1" as="geometry">
            <mxPoint x="90" y="510" as="sourcePoint" />
            <mxPoint x="-130" y="510" as="targetPoint" />
          </mxGeometry>
        </mxCell>
        <mxCell id="nrMlRZg6xzGpJpdYMb1K-38" value="" style="shape=flexArrow;endArrow=classic;html=1;rounded=0;fillColor=light-dark(#080808, #ededed);" edge="1" parent="1">
          <mxGeometry width="50" height="50" relative="1" as="geometry">
            <mxPoint x="-130" y="610" as="sourcePoint" />
            <mxPoint x="90" y="610" as="targetPoint" />
          </mxGeometry>
        </mxCell>
        <mxCell id="nrMlRZg6xzGpJpdYMb1K-40" value="" style="shape=flexArrow;endArrow=classic;html=1;rounded=0;fillColor=light-dark(#080808, #ededed);" edge="1" parent="1">
          <mxGeometry width="50" height="50" relative="1" as="geometry">
            <mxPoint x="88" y="660" as="sourcePoint" />
            <mxPoint x="520" y="660" as="targetPoint" />
          </mxGeometry>
        </mxCell>
        <mxCell id="nrMlRZg6xzGpJpdYMb1K-42" value="" style="shape=flexArrow;endArrow=classic;html=1;rounded=0;fillColor=light-dark(#080808, #ededed);" edge="1" parent="1">
          <mxGeometry width="50" height="50" relative="1" as="geometry">
            <mxPoint x="521.0000000000005" y="740" as="sourcePoint" />
            <mxPoint x="89.00000000000045" y="740" as="targetPoint" />
          </mxGeometry>
        </mxCell>
        <mxCell id="nrMlRZg6xzGpJpdYMb1K-45" value="" style="shape=flexArrow;endArrow=classic;html=1;rounded=0;fillColor=light-dark(#080808, #ededed);" edge="1" parent="1">
          <mxGeometry width="50" height="50" relative="1" as="geometry">
            <mxPoint x="90" y="840" as="sourcePoint" />
            <mxPoint x="730" y="840" as="targetPoint" />
          </mxGeometry>
        </mxCell>
        <mxCell id="nrMlRZg6xzGpJpdYMb1K-47" value="" style="shape=flexArrow;endArrow=classic;html=1;rounded=0;fillColor=light-dark(#080808, #ededed);" edge="1" parent="1">
          <mxGeometry width="50" height="50" relative="1" as="geometry">
            <mxPoint x="940" y="1140" as="sourcePoint" />
            <mxPoint x="90.00000000000045" y="1140" as="targetPoint" />
          </mxGeometry>
        </mxCell>
        <mxCell id="nrMlRZg6xzGpJpdYMb1K-49" value="" style="shape=flexArrow;endArrow=classic;html=1;rounded=0;fillColor=light-dark(#080808, #ededed);" edge="1" parent="1">
          <mxGeometry width="50" height="50" relative="1" as="geometry">
            <mxPoint x="90" y="1050" as="sourcePoint" />
            <mxPoint x="940" y="1050" as="targetPoint" />
          </mxGeometry>
        </mxCell>
        <mxCell id="nrMlRZg6xzGpJpdYMb1K-51" value="" style="shape=flexArrow;endArrow=classic;html=1;rounded=0;fillColor=light-dark(#080808, #ededed);" edge="1" parent="1">
          <mxGeometry width="50" height="50" relative="1" as="geometry">
            <mxPoint x="731" y="940" as="sourcePoint" />
            <mxPoint x="90.00000000000045" y="940" as="targetPoint" />
          </mxGeometry>
        </mxCell>
        <mxCell id="nrMlRZg6xzGpJpdYMb1K-59" value="&lt;div&gt;&lt;font style=&quot;font-size: 14px;&quot;&gt;&lt;b&gt;&amp;nbsp;1) Login&lt;/b&gt;&lt;/font&gt;&lt;/div&gt;" style="text;html=1;align=center;verticalAlign=middle;resizable=0;points=[];autosize=1;strokeColor=none;fillColor=none;" vertex="1" parent="1">
          <mxGeometry x="-55" y="300" width="80" height="30" as="geometry" />
        </mxCell>
        <mxCell id="nrMlRZg6xzGpJpdYMb1K-60" value="&lt;div&gt;&lt;font style=&quot;font-size: 14px;&quot;&gt;&lt;b&gt;&amp;nbsp;2) Forward Login&lt;/b&gt;&lt;/font&gt;&lt;/div&gt;" style="text;html=1;align=center;verticalAlign=middle;resizable=0;points=[];autosize=1;strokeColor=none;fillColor=none;" vertex="1" parent="1">
          <mxGeometry x="130" y="338" width="140" height="30" as="geometry" />
        </mxCell>
        <mxCell id="nrMlRZg6xzGpJpdYMb1K-61" value="&lt;div&gt;&lt;b&gt;&lt;font style=&quot;font-size: 14px;&quot;&gt;3) Check User&amp;nbsp;&lt;/font&gt;&lt;/b&gt;&lt;/div&gt;" style="text;html=1;align=center;verticalAlign=middle;resizable=0;points=[];autosize=1;strokeColor=none;fillColor=none;" vertex="1" parent="1">
          <mxGeometry x="140" y="420" width="120" height="30" as="geometry" />
        </mxCell>
        <mxCell id="nrMlRZg6xzGpJpdYMb1K-62" value="&lt;div&gt;&lt;font style=&quot;font-size: 14px;&quot;&gt;&lt;b&gt;4: Return Token&lt;/b&gt;&lt;/font&gt;&lt;/div&gt;" style="text;html=1;align=center;verticalAlign=middle;resizable=0;points=[];autosize=1;strokeColor=none;fillColor=none;" vertex="1" parent="1">
          <mxGeometry x="-95" y="458" width="130" height="30" as="geometry" />
        </mxCell>
        <mxCell id="nrMlRZg6xzGpJpdYMb1K-63" value="&lt;div&gt;&lt;b&gt;&lt;font style=&quot;font-size: 14px;&quot;&gt;&amp;nbsp;5) Reserve Event&amp;nbsp;&lt;/font&gt;&lt;/b&gt;&lt;/div&gt;" style="text;html=1;align=center;verticalAlign=middle;resizable=0;points=[];autosize=1;strokeColor=none;fillColor=none;" vertex="1" parent="1">
          <mxGeometry x="-80" y="558" width="140" height="30" as="geometry" />
        </mxCell>
        <mxCell id="nrMlRZg6xzGpJpdYMb1K-64" value="&lt;div&gt;&lt;b&gt;&lt;font style=&quot;font-size: 14px;&quot;&gt;&amp;nbsp;6) Check Event&amp;nbsp;&lt;/font&gt;&lt;/b&gt;&lt;/div&gt;" style="text;html=1;align=center;verticalAlign=middle;resizable=0;points=[];autosize=1;strokeColor=none;fillColor=none;" vertex="1" parent="1">
          <mxGeometry x="135" y="608" width="130" height="30" as="geometry" />
        </mxCell>
        <mxCell id="nrMlRZg6xzGpJpdYMb1K-65" value="&lt;div&gt;&lt;b&gt;&lt;font style=&quot;font-size: 14px;&quot;&gt;7) Event Exists&amp;nbsp;&lt;/font&gt;&lt;/b&gt;&lt;/div&gt;" style="text;html=1;align=center;verticalAlign=middle;resizable=0;points=[];autosize=1;strokeColor=none;fillColor=none;" vertex="1" parent="1">
          <mxGeometry x="150" y="690" width="130" height="30" as="geometry" />
        </mxCell>
        <mxCell id="nrMlRZg6xzGpJpdYMb1K-66" value="&lt;div&gt;&lt;font style=&quot;&quot;&gt;&lt;b style=&quot;&quot;&gt;&lt;font style=&quot;font-size: 14px;&quot;&gt;8)&amp;nbsp;&lt;span style=&quot;background-color: transparent; color: light-dark(rgb(0, 0, 0), rgb(255, 255, 255));&quot;&gt;Reserve Event&lt;/span&gt;&lt;/font&gt;&lt;br&gt;&lt;/b&gt;&lt;/font&gt;&lt;/div&gt;" style="text;html=1;align=center;verticalAlign=middle;resizable=0;points=[];autosize=1;strokeColor=none;fillColor=none;" vertex="1" parent="1">
          <mxGeometry x="145" y="800" width="140" height="30" as="geometry" />
        </mxCell>
        <mxCell id="nrMlRZg6xzGpJpdYMb1K-67" value="&lt;div&gt;&lt;b&gt;&lt;font style=&quot;font-size: 14px;&quot;&gt;&lt;font style=&quot;&quot;&gt;9)&amp;nbsp;&lt;/font&gt;&lt;span style=&quot;background-color: transparent; color: light-dark(rgb(0, 0, 0), rgb(255, 255, 255));&quot;&gt;Reservation Success&lt;/span&gt;&lt;/font&gt;&lt;/b&gt;&lt;/div&gt;" style="text;html=1;align=center;verticalAlign=middle;resizable=0;points=[];autosize=1;strokeColor=none;fillColor=none;" vertex="1" parent="1">
          <mxGeometry x="110" y="900" width="180" height="30" as="geometry" />
        </mxCell>
        <mxCell id="nrMlRZg6xzGpJpdYMb1K-68" value="&lt;div&gt;&lt;b&gt;&lt;font style=&quot;font-size: 14px;&quot;&gt;10) Process Payment&amp;nbsp; &amp;nbsp;&amp;nbsp;&lt;/font&gt;&lt;/b&gt;&lt;/div&gt;" style="text;html=1;align=center;verticalAlign=middle;resizable=0;points=[];autosize=1;strokeColor=none;fillColor=none;" vertex="1" parent="1">
          <mxGeometry x="110" y="1010" width="180" height="30" as="geometry" />
        </mxCell>
        <mxCell id="nrMlRZg6xzGpJpdYMb1K-69" value="&lt;div&gt;&lt;b&gt;&lt;font style=&quot;font-size: 14px;&quot;&gt;11) Payment Success&lt;/font&gt;&lt;/b&gt;&lt;/div&gt;" style="text;html=1;align=center;verticalAlign=middle;resizable=0;points=[];autosize=1;strokeColor=none;fillColor=none;" vertex="1" parent="1">
          <mxGeometry x="114" y="1100" width="170" height="30" as="geometry" />
        </mxCell>
        <mxCell id="nrMlRZg6xzGpJpdYMb1K-73" value="" style="shape=flexArrow;endArrow=classic;html=1;rounded=0;fillColor=light-dark(#FF0000,#EDEDED);" edge="1" parent="1">
          <mxGeometry width="50" height="50" relative="1" as="geometry">
            <mxPoint x="935" y="1230" as="sourcePoint" />
            <mxPoint x="85.00000000000045" y="1230" as="targetPoint" />
          </mxGeometry>
        </mxCell>
        <mxCell id="nrMlRZg6xzGpJpdYMb1K-75" value="&lt;div&gt;&lt;b&gt;&lt;font style=&quot;font-size: 14px; color: rgb(255, 51, 51);&quot;&gt;11) Payment Failed&lt;/font&gt;&lt;/b&gt;&lt;/div&gt;" style="text;html=1;align=center;verticalAlign=middle;resizable=0;points=[];autosize=1;strokeColor=none;fillColor=none;" vertex="1" parent="1">
          <mxGeometry x="125" y="1190" width="150" height="30" as="geometry" />
        </mxCell>
        <mxCell id="nrMlRZg6xzGpJpdYMb1K-77" value="" style="shape=flexArrow;endArrow=classic;html=1;rounded=0;fillColor=light-dark(#FF3333,#EDEDED);" edge="1" parent="1">
          <mxGeometry width="50" height="50" relative="1" as="geometry">
            <mxPoint x="90" y="1310" as="sourcePoint" />
            <mxPoint x="730" y="1310" as="targetPoint" />
          </mxGeometry>
        </mxCell>
        <mxCell id="nrMlRZg6xzGpJpdYMb1K-78" value="" style="shape=flexArrow;endArrow=classic;html=1;rounded=0;fillColor=light-dark(#FF3333,#EDEDED);" edge="1" parent="1">
          <mxGeometry width="50" height="50" relative="1" as="geometry">
            <mxPoint x="730" y="1380" as="sourcePoint" />
            <mxPoint x="90" y="1380" as="targetPoint" />
          </mxGeometry>
        </mxCell>
        <mxCell id="nrMlRZg6xzGpJpdYMb1K-81" value="&lt;div&gt;&lt;font style=&quot;color: rgb(255, 51, 51); font-size: 14px;&quot;&gt;&lt;b&gt;12) Rollback Reservation&lt;/b&gt;&lt;/font&gt;&lt;/div&gt;" style="text;html=1;align=center;verticalAlign=middle;resizable=0;points=[];autosize=1;strokeColor=none;fillColor=none;" vertex="1" parent="1">
          <mxGeometry x="105" y="1268" width="190" height="30" as="geometry" />
        </mxCell>
        <mxCell id="nrMlRZg6xzGpJpdYMb1K-82" value="&lt;div&gt;&lt;font style=&quot;font-size: 14px; color: rgb(255, 51, 51);&quot;&gt;&lt;b&gt;13) Rollback Success&lt;/b&gt;&lt;/font&gt;&lt;/div&gt;" style="text;html=1;align=center;verticalAlign=middle;resizable=0;points=[];autosize=1;strokeColor=none;fillColor=none;" vertex="1" parent="1">
          <mxGeometry x="115" y="1338" width="170" height="30" as="geometry" />
        </mxCell>
        <mxCell id="nrMlRZg6xzGpJpdYMb1K-83" value="" style="shape=flexArrow;endArrow=classic;html=1;rounded=0;fillColor=light-dark(#FF0000,#EDEDED);" edge="1" parent="1">
          <mxGeometry width="50" height="50" relative="1" as="geometry">
            <mxPoint x="89.99999999999955" y="1434.41" as="sourcePoint" />
            <mxPoint x="-130.00000000000045" y="1434.41" as="targetPoint" />
          </mxGeometry>
        </mxCell>
        <mxCell id="nrMlRZg6xzGpJpdYMb1K-85" value="&lt;div&gt;&lt;font style=&quot;font-size: 14px; color: rgb(255, 51, 51);&quot;&gt;&lt;b&gt;14)&amp;nbsp; Payment Failed&lt;/b&gt;&lt;/font&gt;&lt;/div&gt;" style="text;html=1;align=center;verticalAlign=middle;resizable=0;points=[];autosize=1;strokeColor=none;fillColor=none;" vertex="1" parent="1">
          <mxGeometry x="-90" y="1400" width="150" height="30" as="geometry" />
        </mxCell>
        <mxCell id="nrMlRZg6xzGpJpdYMb1K-55" value="" style="shape=flexArrow;endArrow=classic;html=1;rounded=0;fillColor=light-dark(#080808, #ededed);" edge="1" parent="1">
          <mxGeometry width="50" height="50" relative="1" as="geometry">
            <mxPoint x="1150" y="1598" as="sourcePoint" />
            <mxPoint x="85.00000000000045" y="1598" as="targetPoint" />
          </mxGeometry>
        </mxCell>
        <mxCell id="nrMlRZg6xzGpJpdYMb1K-53" value="" style="shape=flexArrow;endArrow=classic;html=1;rounded=0;fillColor=light-dark(#080808, #ededed);" edge="1" parent="1">
          <mxGeometry width="50" height="50" relative="1" as="geometry">
            <mxPoint x="85" y="1510" as="sourcePoint" />
            <mxPoint x="1162.3529411764705" y="1510" as="targetPoint" />
          </mxGeometry>
        </mxCell>
        <mxCell id="nrMlRZg6xzGpJpdYMb1K-57" value="" style="shape=flexArrow;endArrow=classic;html=1;rounded=0;fillColor=light-dark(#080808, #ededed);" edge="1" parent="1">
          <mxGeometry width="50" height="50" relative="1" as="geometry">
            <mxPoint x="89.99999999999955" y="1650" as="sourcePoint" />
            <mxPoint x="-130.00000000000045" y="1650" as="targetPoint" />
          </mxGeometry>
        </mxCell>
        <mxCell id="nrMlRZg6xzGpJpdYMb1K-70" value="&lt;div&gt;&lt;b&gt;&lt;font style=&quot;font-size: 14px;&quot;&gt;12) Send Notification&amp;nbsp;&amp;nbsp;&lt;/font&gt;&lt;/b&gt;&lt;/div&gt;" style="text;html=1;align=center;verticalAlign=middle;resizable=0;points=[];autosize=1;strokeColor=none;fillColor=none;" vertex="1" parent="1">
          <mxGeometry x="124" y="1468" width="170" height="30" as="geometry" />
        </mxCell>
        <mxCell id="nrMlRZg6xzGpJpdYMb1K-71" value="&lt;div&gt;&lt;font style=&quot;font-size: 14px;&quot;&gt;&lt;b&gt;13) Notification Sent&amp;nbsp;&lt;/b&gt;&lt;/font&gt;&lt;/div&gt;" style="text;html=1;align=center;verticalAlign=middle;resizable=0;points=[];autosize=1;strokeColor=none;fillColor=none;" vertex="1" parent="1">
          <mxGeometry x="129" y="1558" width="160" height="30" as="geometry" />
        </mxCell>
        <mxCell id="nrMlRZg6xzGpJpdYMb1K-72" value="&lt;div&gt;&lt;b&gt;&lt;font style=&quot;font-size: 14px;&quot;&gt;14) Reservation Success&lt;/font&gt;&lt;/b&gt;&lt;/div&gt;" style="text;html=1;align=center;verticalAlign=middle;resizable=0;points=[];autosize=1;strokeColor=none;fillColor=none;" vertex="1" parent="1">
          <mxGeometry x="-110" y="1610" width="190" height="30" as="geometry" />
        </mxCell>
        <mxCell id="nrMlRZg6xzGpJpdYMb1K-88" value="&lt;p style=&quot;white-space: pre-wrap;&quot; class=&quot;break-words&quot; dir=&quot;auto&quot;&gt;&lt;/p&gt;&lt;ul&gt;&lt;li&gt;&lt;strong&gt;&lt;font style=&quot;font-size: 19px;&quot;&gt;In the above Diagram:&lt;/font&gt;&lt;/strong&gt;&lt;/li&gt;&lt;/ul&gt;&lt;b style=&quot;background-color: transparent; color: light-dark(rgb(0, 0, 0), rgb(255, 255, 255)); font-size: 19px; white-space: nowrap;&quot;&gt;1) The user attempts to log in by sending their identifier (Username and Password ) in the request body to the API Gateway.&amp;nbsp;&lt;/b&gt;&lt;p&gt;&lt;/p&gt;&lt;p style=&quot;white-space: pre-wrap;&quot; class=&quot;break-words&quot; dir=&quot;auto&quot;&gt;&lt;b style=&quot;background-color: transparent; color: light-dark(rgb(0, 0, 0), rgb(255, 255, 255)); font-size: 19px; white-space: nowrap;&quot;&gt;2)&amp;nbsp;&lt;/b&gt;&lt;b style=&quot;font-size: 19px; background-color: transparent; color: light-dark(rgb(0, 0, 0), rgb(255, 255, 255)); white-space: nowrap;&quot;&gt;The API Gateway forwards the login request to the Profile Management service to validate the user&#39;s identifier.&lt;/b&gt;&lt;/p&gt;&lt;p style=&quot;white-space: pre-wrap;&quot; class=&quot;break-words&quot; dir=&quot;auto&quot;&gt;&lt;b style=&quot;font-size: 19px; background-color: transparent; color: light-dark(rgb(0, 0, 0), rgb(255, 255, 255)); white-space: nowrap;&quot;&gt;3)&amp;nbsp;&lt;/b&gt;&lt;b style=&quot;font-size: 19px; background-color: transparent; color: light-dark(rgb(0, 0, 0), rgb(255, 255, 255)); white-space: nowrap;&quot;&gt;The Profile Management service checks if the user exists and, if valid, generates a token for authentication.&lt;/b&gt;&lt;/p&gt;&lt;p style=&quot;white-space: pre-wrap;&quot; class=&quot;break-words&quot; dir=&quot;auto&quot;&gt;&lt;b style=&quot;font-size: 19px; background-color: transparent; color: light-dark(rgb(0, 0, 0), rgb(255, 255, 255)); white-space: nowrap;&quot;&gt;4)) The API Gateway returns the token to the User.&lt;/b&gt;&lt;/p&gt;&lt;p style=&quot;white-space: pre-wrap;&quot; class=&quot;break-words&quot; dir=&quot;auto&quot;&gt;&lt;b style=&quot;font-size: 19px; background-color: transparent; color: light-dark(rgb(0, 0, 0), rgb(255, 255, 255)); white-space: nowrap;&quot;&gt;5) The user sends a request to reserve an event, placing the token in the request header and the Event ID in the request body. The API Gateway validates the token and extracts the User ID.&lt;/b&gt;&lt;/p&gt;&lt;p style=&quot;white-space: pre-wrap;&quot; class=&quot;break-words&quot; dir=&quot;auto&quot;&gt;&lt;b style=&quot;font-size: 19px; background-color: transparent; color: light-dark(rgb(0, 0, 0), rgb(255, 255, 255)); white-space: nowrap;&quot;&gt;6) The API Gateway sends a request to the Event Manager to check the availability of the event using the provided Event ID.&lt;/b&gt;&lt;/p&gt;&lt;p style=&quot;white-space: pre-wrap;&quot; class=&quot;break-words&quot; dir=&quot;auto&quot;&gt;&lt;b style=&quot;font-size: 19px; background-color: transparent; color: light-dark(rgb(0, 0, 0), rgb(255, 255, 255)); white-space: nowrap;&quot;&gt;7) The Event Manager confirms that the event exists and has available capacity, returning the result to the API Gateway.&lt;/b&gt;&lt;/p&gt;&lt;p style=&quot;white-space: pre-wrap;&quot; class=&quot;break-words&quot; dir=&quot;auto&quot;&gt;&lt;b style=&quot;font-size: 19px; background-color: transparent; color: light-dark(rgb(0, 0, 0), rgb(255, 255, 255)); white-space: nowrap;&quot;&gt;8) The API Gateway forwards the reservation request to the Reserve Manager, including the User ID and Event ID.&lt;/b&gt;&lt;/p&gt;&lt;p style=&quot;white-space: pre-wrap;&quot; class=&quot;break-words&quot; dir=&quot;auto&quot;&gt;&lt;b style=&quot;font-size: 19px; background-color: transparent; color: light-dark(rgb(0, 0, 0), rgb(255, 255, 255)); white-space: nowrap;&quot;&gt;9) The Reserve Manager books the event for the user and confirms the reservation and r&lt;/b&gt;&lt;b style=&quot;background-color: transparent; color: light-dark(rgb(0, 0, 0), rgb(255, 255, 255)); white-space: nowrap; font-size: 19px;&quot;&gt;eturns a success response to the API Gateway, indicating the reservation is complete.&lt;/b&gt;&lt;/p&gt;&lt;p style=&quot;white-space: pre-wrap;&quot; class=&quot;break-words&quot; dir=&quot;auto&quot;&gt;&lt;b style=&quot;font-size: 19px; background-color: transparent; color: light-dark(rgb(0, 0, 0), rgb(255, 255, 255)); white-space: nowrap;&quot;&gt;10)&lt;/b&gt;&lt;b style=&quot;font-size: 19px; background-color: transparent; color: light-dark(rgb(0, 0, 0), rgb(255, 255, 255)); white-space: nowrap;&quot;&gt;The API Gateway sends a request to the Wallet Manager to process the payment for the event, providing the User ID and Event ID.&lt;/b&gt;&lt;/p&gt;&lt;ol class=&quot;marker:text-secondary&quot; dir=&quot;auto&quot;&gt;&lt;br&gt;&lt;/ol&gt;&lt;br&gt;&lt;p style=&quot;white-space: pre-wrap;&quot; class=&quot;break-words&quot; dir=&quot;auto&quot;&gt;&lt;strong&gt;&lt;font style=&quot;font-size: 19px;&quot;&gt;Happy Path (Black Arrows):&lt;/font&gt;&lt;/strong&gt;&lt;/p&gt;&lt;p style=&quot;white-space: pre-wrap;&quot; class=&quot;break-words&quot; dir=&quot;auto&quot;&gt;&lt;strong&gt;&lt;font style=&quot;font-size: 19px;&quot;&gt;&lt;br&gt;&lt;/font&gt;&lt;/strong&gt;&lt;/p&gt;&lt;p style=&quot;white-space: pre-wrap;&quot; class=&quot;break-words&quot; dir=&quot;auto&quot;&gt;&lt;strong&gt;&lt;font style=&quot;font-size: 19px;&quot;&gt;11)&lt;/font&gt;&lt;/strong&gt;&lt;b style=&quot;font-size: 19px; background-color: transparent; color: light-dark(rgb(0, 0, 0), rgb(255, 255, 255)); white-space: nowrap;&quot;&gt;The Wallet Manager successfully processes the payment and returns a confirmation to the API Gateway.&lt;/b&gt;&lt;/p&gt;&lt;p style=&quot;white-space: pre-wrap;&quot; class=&quot;break-words&quot; dir=&quot;auto&quot;&gt;&lt;b style=&quot;font-size: 19px; background-color: transparent; color: light-dark(rgb(0, 0, 0), rgb(255, 255, 255)); white-space: nowrap;&quot;&gt;12)&lt;/b&gt;&lt;b style=&quot;font-size: 19px; background-color: transparent; color: light-dark(rgb(0, 0, 0), rgb(255, 255, 255)); white-space: nowrap;&quot;&gt;The API Gateway sends a request to the Notif Manager to notify the user of the successful reservation.&lt;/b&gt;&lt;/p&gt;&lt;p style=&quot;white-space: pre-wrap;&quot; class=&quot;break-words&quot; dir=&quot;auto&quot;&gt;&lt;b style=&quot;font-size: 19px; background-color: transparent; color: light-dark(rgb(0, 0, 0), rgb(255, 255, 255)); white-space: nowrap;&quot;&gt;13)&lt;/b&gt;&lt;b style=&quot;font-size: 19px; background-color: transparent; color: light-dark(rgb(0, 0, 0), rgb(255, 255, 255)); white-space: nowrap;&quot;&gt;The Notif Manager sends a confirmation notification (including payment details) and returns a success response to the API Gateway.&lt;/b&gt;&lt;/p&gt;&lt;p style=&quot;white-space: pre-wrap;&quot; class=&quot;break-words&quot; dir=&quot;auto&quot;&gt;&lt;b style=&quot;font-size: 19px; background-color: transparent; color: light-dark(rgb(0, 0, 0), rgb(255, 255, 255)); white-space: nowrap;&quot;&gt;14)&lt;/b&gt;&lt;b style=&quot;font-size: 19px; background-color: transparent; color: light-dark(rgb(0, 0, 0), rgb(255, 255, 255)); white-space: nowrap;&quot;&gt;The API Gateway sends a final response to the user, confirming the event reservation and payment.&lt;/b&gt;&lt;/p&gt;&lt;ol start=&quot;12&quot; class=&quot;marker:text-secondary&quot; dir=&quot;auto&quot;&gt;&lt;br&gt;&lt;/ol&gt;&lt;br&gt;&lt;p style=&quot;white-space: pre-wrap;&quot; class=&quot;break-words&quot; dir=&quot;auto&quot;&gt;&lt;strong&gt;&lt;font style=&quot;font-size: 19px;&quot;&gt;Error Path (Red Arrows - Payment Failure):&lt;/font&gt;&lt;/strong&gt;&lt;/p&gt;&lt;p style=&quot;white-space: pre-wrap;&quot; class=&quot;break-words&quot; dir=&quot;auto&quot;&gt;&lt;strong&gt;&lt;font style=&quot;font-size: 19px;&quot;&gt;&lt;br&gt;&lt;/font&gt;&lt;/strong&gt;&lt;/p&gt;&lt;p style=&quot;white-space: pre-wrap;&quot; class=&quot;break-words&quot; dir=&quot;auto&quot;&gt;&lt;strong&gt;&lt;font style=&quot;font-size: 19px;&quot;&gt;11)&lt;/font&gt;&lt;/strong&gt;&lt;b style=&quot;font-size: 19px; background-color: transparent; color: light-dark(rgb(0, 0, 0), rgb(255, 255, 255)); white-space: nowrap;&quot;&gt;The Wallet Manager fails to process the payment (e.g., due to insufficient funds) and returns a &quot;Payment Failed&quot; error to the API Gateway.&lt;/b&gt;&lt;/p&gt;&lt;p style=&quot;white-space: pre-wrap;&quot; class=&quot;break-words&quot; dir=&quot;auto&quot;&gt;&lt;b style=&quot;font-size: 19px; background-color: transparent; color: light-dark(rgb(0, 0, 0), rgb(255, 255, 255)); white-space: nowrap;&quot;&gt;12)&lt;/b&gt;&lt;b style=&quot;font-size: 19px; background-color: transparent; color: light-dark(rgb(0, 0, 0), rgb(255, 255, 255)); white-space: nowrap;&quot;&gt;The API Gateway requests the Reserve Manager to rollback the reservation to maintain system consistency.&lt;/b&gt;&lt;/p&gt;&lt;p style=&quot;white-space: pre-wrap;&quot; class=&quot;break-words&quot; dir=&quot;auto&quot;&gt;&lt;b style=&quot;font-size: 19px; background-color: transparent; color: light-dark(rgb(0, 0, 0), rgb(255, 255, 255)); white-space: nowrap;&quot;&gt;13)&lt;/b&gt;&lt;b style=&quot;font-size: 19px; background-color: transparent; color: light-dark(rgb(0, 0, 0), rgb(255, 255, 255)); white-space: nowrap;&quot;&gt;The Reserve Manager rolls back the reservation and confirms the rollback success to the API Gateway.&lt;/b&gt;&lt;/p&gt;&lt;p style=&quot;white-space: pre-wrap;&quot; class=&quot;break-words&quot; dir=&quot;auto&quot;&gt;&lt;b style=&quot;font-size: 19px; background-color: transparent; color: light-dark(rgb(0, 0, 0), rgb(255, 255, 255)); white-space: nowrap;&quot;&gt;14)&lt;/b&gt;&lt;b style=&quot;font-size: 19px; background-color: transparent; color: light-dark(rgb(0, 0, 0), rgb(255, 255, 255)); white-space: nowrap;&quot;&gt;The API Gateway sends an error response to the user, indicating &quot;Error: Payment Failed.&quot;&lt;/b&gt;&lt;/p&gt;&lt;ol start=&quot;12&quot; class=&quot;marker:text-secondary&quot; dir=&quot;auto&quot;&gt;&lt;br&gt;&lt;/ol&gt;&lt;br&gt;&lt;p style=&quot;white-space: pre-wrap;&quot; class=&quot;break-words&quot; dir=&quot;auto&quot;&gt;&lt;font style=&quot;font-size: 19px;&quot;&gt;&lt;b&gt;This diagram showcases the event reservation process with authentication, payment handling, and error management, ensuring data consistency through rollback mechanisms.&lt;br&gt;&lt;/b&gt;&lt;/font&gt;&lt;/p&gt;" style="text;html=1;align=left;verticalAlign=middle;resizable=0;points=[];autosize=1;strokeColor=none;fillColor=none;" vertex="1" parent="1">
          <mxGeometry x="-330" y="1975" width="1720" height="1020" as="geometry" />
        </mxCell>
        <mxCell id="nrMlRZg6xzGpJpdYMb1K-10" value="&amp;nbsp;User" style="rounded=1;whiteSpace=wrap;html=1;strokeWidth=3;fontStyle=1;fontSize=13;" vertex="1" parent="1">
          <mxGeometry x="-190" y="1770" width="120" height="60" as="geometry" />
        </mxCell>
        <mxCell id="nrMlRZg6xzGpJpdYMb1K-11" value="API Gateway" style="rounded=1;whiteSpace=wrap;html=1;strokeWidth=3;fontStyle=1;fontSize=13;" vertex="1" parent="1">
          <mxGeometry x="30" y="1770" width="120" height="60" as="geometry" />
        </mxCell>
        <mxCell id="nrMlRZg6xzGpJpdYMb1K-12" value="Profile Management" style="rounded=1;whiteSpace=wrap;html=1;strokeWidth=3;fontStyle=1;fontSize=13;" vertex="1" parent="1">
          <mxGeometry x="250" y="1770" width="120" height="60" as="geometry" />
        </mxCell>
        <mxCell id="nrMlRZg6xzGpJpdYMb1K-13" value="Event Manager" style="rounded=1;whiteSpace=wrap;html=1;strokeWidth=3;fontStyle=1;fontSize=13;" vertex="1" parent="1">
          <mxGeometry x="460" y="1770" width="120" height="60" as="geometry" />
        </mxCell>
        <mxCell id="nrMlRZg6xzGpJpdYMb1K-14" value="Reserve Manager" style="rounded=1;whiteSpace=wrap;html=1;strokeWidth=3;fontStyle=1;fontSize=13;" vertex="1" parent="1">
          <mxGeometry x="670" y="1770" width="120" height="60" as="geometry" />
        </mxCell>
        <mxCell id="nrMlRZg6xzGpJpdYMb1K-15" value="Wallet Manager" style="rounded=1;whiteSpace=wrap;html=1;strokeWidth=3;fontStyle=1;fontSize=13;" vertex="1" parent="1">
          <mxGeometry x="880" y="1770" width="120" height="60" as="geometry" />
        </mxCell>
        <mxCell id="nrMlRZg6xzGpJpdYMb1K-26" value="Notif Manager" style="rounded=1;whiteSpace=wrap;html=1;strokeWidth=3;fontStyle=1;fontSize=13;" vertex="1" parent="1">
          <mxGeometry x="1090" y="1770" width="120" height="60" as="geometry" />
        </mxCell>
        <mxCell id="nrMlRZg6xzGpJpdYMb1K-7" value="Notif Manager" style="rounded=1;whiteSpace=wrap;html=1;strokeWidth=3;fontStyle=1;fontSize=13;" vertex="1" parent="1">
          <mxGeometry x="1090" y="200" width="120" height="60" as="geometry" />
        </mxCell>
        <mxCell id="nrMlRZg6xzGpJpdYMb1K-1" value="&amp;nbsp;User" style="rounded=1;whiteSpace=wrap;html=1;strokeWidth=3;fontStyle=1;fontSize=13;" vertex="1" parent="1">
          <mxGeometry x="-190" y="200" width="120" height="60" as="geometry" />
        </mxCell>
        <mxCell id="nrMlRZg6xzGpJpdYMb1K-2" value="API Gateway" style="rounded=1;whiteSpace=wrap;html=1;strokeWidth=3;fontStyle=1;fontSize=13;" vertex="1" parent="1">
          <mxGeometry x="30" y="200" width="120" height="60" as="geometry" />
        </mxCell>
        <mxCell id="nrMlRZg6xzGpJpdYMb1K-3" value="Profile Management" style="rounded=1;whiteSpace=wrap;html=1;strokeWidth=3;fontStyle=1;fontSize=13;" vertex="1" parent="1">
          <mxGeometry x="250" y="200" width="120" height="60" as="geometry" />
        </mxCell>
        <mxCell id="nrMlRZg6xzGpJpdYMb1K-4" value="Event Manager" style="rounded=1;whiteSpace=wrap;html=1;strokeWidth=3;fontStyle=1;fontSize=13;" vertex="1" parent="1">
          <mxGeometry x="460" y="200" width="120" height="60" as="geometry" />
        </mxCell>
        <mxCell id="nrMlRZg6xzGpJpdYMb1K-5" value="Reserve Manager" style="rounded=1;whiteSpace=wrap;html=1;strokeWidth=3;fontStyle=1;fontSize=13;" vertex="1" parent="1">
          <mxGeometry x="670" y="200" width="120" height="60" as="geometry" />
        </mxCell>
        <mxCell id="nrMlRZg6xzGpJpdYMb1K-6" value="Wallet Manager" style="rounded=1;whiteSpace=wrap;html=1;strokeWidth=3;fontStyle=1;fontSize=13;" vertex="1" parent="1">
          <mxGeometry x="880" y="200" width="120" height="60" as="geometry" />
        </mxCell>
        <mxCell id="nrMlRZg6xzGpJpdYMb1K-91" value="&lt;font style=&quot;font-size: 23px;&quot;&gt;&lt;b style=&quot;&quot;&gt;EventReservation&lt;/b&gt;&lt;/font&gt;" style="text;html=1;align=center;verticalAlign=middle;resizable=0;points=[];autosize=1;strokeColor=none;fillColor=none;" vertex="1" parent="1">
          <mxGeometry x="310" y="93" width="220" height="40" as="geometry" />
        </mxCell>
      </root>
    </mxGraphModel>
  </diagram>
</mxfile>
